  <svg >
    <path
      d="M38.686,65.08747v86.43618l-14.42767,-8.24284v-86.56169l75.73499,-43.28084l75.74797,43.28084v86.56169l-75.74797,43.28084l-46.87965,-26.79734v-86.302l46.87965,-26.78868l46.8948,26.78868v53.06664l-46.8948,26.79734l-18.02647,-10.30517v-52.81129l18.02647,-10.30733l14.5402,8.30559l-18.139,10.37009v36.07458l3.5988,2.05584l32.46713,-18.54801v-36.32994l-32.46713,-18.54584l-32.45414,18.54584v69.5653l32.45414,18.54801l61.32246,-35.03801v-69.81849l-61.32246,-35.03152zM29.2893,29.28946c9.22649,-9.22648 19.82173,-16.3699 31.78572,-21.43027c12.38719,-5.23935 25.36205,-7.85903 38.92457,-7.85903c13.5629,0 26.5379,2.61968 38.92501,7.85903c11.96399,5.06033 22.55939,12.20375 31.78619,21.43027c9.22638,9.22645 16.36963,19.82169 21.42974,31.78572c5.23965,12.38711 7.85947,25.36207 7.85947,38.92488c0,13.5629 -2.61982,26.5379 -7.85947,38.92501c-5.06012,11.96399 -12.20336,22.55918 -21.42974,31.78556c-9.22638,9.22638 -19.82177,16.36984 -31.78619,21.43038c-12.38669,5.23922 -25.36169,7.85884 -38.92501,7.85884c-13.56235,0 -26.53721,-2.61961 -38.92457,-7.85884c-11.96391,-5.06012 -22.55915,-12.20357 -31.78572,-21.43038c-9.22656,-9.22638 -16.36999,-19.82156 -21.43027,-31.78556c-5.23935,-12.38753 -7.85903,-25.36253 -7.85903,-38.92501c0,-13.56273 2.61968,-26.53769 7.85903,-38.92488c5.06037,-11.96399 12.20379,-22.55923 21.43027,-31.78572zM31.13174,168.86792c8.9867,8.98701 19.30614,15.94482 30.95832,20.87345c12.06248,5.10184 24.69899,7.65276 37.90953,7.65276c13.21058,0 25.84739,-2.55092 37.91042,-7.65276c11.65171,-4.92821 21.97107,-11.88603 30.95808,-20.87345c8.98701,-8.98658 15.94461,-19.30594 20.87282,-30.95808c5.10226,-12.06261 7.65339,-24.6992 7.65339,-37.90978c0,-13.21054 -2.55113,-25.84716 -7.65339,-37.90985c-4.92821,-11.65201 -11.88582,-21.97145 -20.87282,-30.95832c-8.98701,-8.98693 -19.30637,-15.94458 -30.95808,-20.87296c-12.06303,-5.10209 -24.69983,-7.65314 -37.91042,-7.65314c-13.2102,0 -25.84671,2.55105 -37.90953,7.65314c-11.65192,4.92834 -21.97136,11.88599 -30.95832,20.87296c-8.98693,8.98696 -15.94458,19.30639 -20.87296,30.95832c-5.10209,12.06278 -7.65314,24.69939 -7.65314,37.90985c0,13.21058 2.55105,25.84718 7.65314,37.90978c4.92838,11.65213 11.88603,21.97149 20.87296,30.95808z"
      fill-rule="evenodd"></path>
  </svg>